<svg width="118" height="34" viewBox="0 0 118 34" fill="none" xmlns="http://www.w3.org/2000/svg">
<g clip-path="url(#clip0)">
<g filter="url(#filter0_d)">
<path d="M42.8689 14.4492C41.9846 14.4492 41.1002 14.3608 40.2159 14.0955C39.3315 13.8302 38.7125 13.4765 38.1819 13.1227L39.0662 11.5309C39.5968 11.8846 40.1275 12.1499 40.8349 12.4152C41.5424 12.5921 42.2499 12.769 42.9574 12.769C44.7261 12.769 45.6104 12.2384 45.6104 11.2656C45.6104 10.9118 45.522 10.6465 45.2567 10.4697C44.9914 10.2928 44.7261 10.1159 44.3723 10.0275C44.0186 9.93906 43.488 9.85063 42.8689 9.67376C41.9846 9.49689 41.1887 9.40845 40.6581 9.14315C40.1275 8.96628 39.5968 8.61254 39.1547 8.17036C38.7125 7.72819 38.5356 7.10914 38.5356 6.31322C38.5356 5.252 38.9778 4.45609 39.7737 3.83704C40.6581 3.218 41.8077 2.86426 43.2227 2.86426C43.9302 2.86426 44.7261 2.95269 45.4336 3.12956C46.2295 3.30643 46.7601 3.57174 47.2907 3.83704L46.4063 5.42887C45.522 4.80983 44.3723 4.54452 43.1342 4.54452C42.2499 4.54452 41.6309 4.72139 41.1887 4.9867C40.7465 5.252 40.4812 5.69418 40.4812 6.13635C40.4812 6.49009 40.5696 6.84383 40.8349 7.0207C41.1002 7.19757 41.3655 7.37444 41.8077 7.46288C42.1615 7.55131 42.6921 7.63975 43.3996 7.81662C44.2839 7.99349 45.0798 8.17036 45.6104 8.34723C46.141 8.5241 46.6716 8.7894 47.0254 9.23158C47.3791 9.67376 47.6444 10.2928 47.6444 11.0003C47.6444 12.0615 47.2023 12.8574 46.3179 13.4765C45.522 14.1839 44.3723 14.4492 42.8689 14.4492Z" fill="#F9F8FA"/>
<path d="M50.2973 2.95236H52.3313V14.3605H50.2973V2.95236ZM51.2701 0.741487C50.9164 0.741487 50.5627 0.65305 50.2973 0.387745C50.032 0.12244 49.9436 -0.142864 49.9436 -0.585039C49.9436 -0.938779 50.032 -1.29252 50.2973 -1.55782C50.5627 -1.82313 50.9164 -2 51.2701 -2C51.6239 -2 51.9776 -1.91157 52.2429 -1.64626C52.5082 -1.38096 52.6851 -1.11565 52.6851 -0.76191C52.6851 -0.40817 52.5082 -0.0544291 52.2429 0.210876C52.066 0.653051 51.7123 0.741487 51.2701 0.741487Z" fill="#F9F8FA"/>
<path d="M70.8148 2.86426C72.2298 2.86426 73.3795 3.30643 74.1754 4.10235C74.9713 4.89826 75.4135 6.13635 75.4135 7.81662V14.3608H73.3795V8.08193C73.3795 7.02071 73.1141 6.13636 72.5835 5.60574C72.0529 5.07513 71.3454 4.80983 70.4611 4.80983C69.3999 4.80983 68.604 5.16357 67.9849 5.78261C67.3659 6.40166 67.1006 7.37445 67.1006 8.61254V14.4493H65.0666V8.17036C65.0666 7.10914 64.8013 6.22479 64.2706 5.69418C63.74 5.16357 63.0325 4.89826 62.1482 4.89826C61.087 4.89826 60.2911 5.252 59.672 5.87105C59.053 6.49009 58.7877 7.46288 58.7877 8.70097V14.5377H56.7537V2.95269H58.6992V4.63296C59.1414 4.01391 59.672 3.57174 60.2911 3.30643C60.9985 2.95269 61.706 2.86426 62.5904 2.86426C63.4747 2.86426 64.2706 3.04113 64.8897 3.39487C65.5972 3.74861 66.1278 4.27922 66.4815 4.9867C66.9237 4.36765 67.4543 3.83704 68.2502 3.4833C68.9577 3.04113 69.8421 2.86426 70.8148 2.86426Z" fill="#F9F8FA"/>
<path d="M84.1678 2.86426C85.229 2.86426 86.2018 3.12956 87.0862 3.57174C87.9705 4.10235 88.5896 4.72139 89.1202 5.60574C89.6508 6.4901 89.8277 7.46288 89.8277 8.61254C89.8277 9.76219 89.5624 10.735 89.1202 11.6193C88.678 12.5037 87.9705 13.2112 87.0862 13.6533C86.2018 14.1839 85.229 14.3608 84.1678 14.3608C83.3719 14.3608 82.576 14.1839 81.9569 13.9186C81.2495 13.5649 80.7189 13.1227 80.2767 12.5037V18.4288H78.2427V2.95269H80.1882V4.72139C80.6304 4.10235 81.2495 3.66017 81.8685 3.30643C82.576 3.04113 83.2835 2.86426 84.1678 2.86426ZM83.991 12.6805C84.6984 12.6805 85.3175 12.5037 85.9365 12.1499C86.5556 11.7962 86.9977 11.354 87.263 10.735C87.6168 10.1159 87.7937 9.40845 87.7937 8.61254C87.7937 7.81662 87.6168 7.10914 87.263 6.4901C86.9093 5.87105 86.4671 5.42887 85.9365 5.07513C85.4059 4.72139 84.6984 4.54452 83.991 4.54452C83.2835 4.54452 82.6644 4.72139 82.0454 5.07513C81.5148 5.42887 80.9842 5.87105 80.7189 6.4901C80.3651 7.10914 80.1882 7.81662 80.1882 8.61254C80.1882 9.40845 80.3651 10.1159 80.7189 10.735C81.0726 11.354 81.5148 11.7962 82.0454 12.1499C82.576 12.5037 83.2835 12.6805 83.991 12.6805Z" fill="#F9F8FA"/>
<path d="M93.1011 -1.55811H95.1351V14.3602H93.1011V-1.55811Z" fill="#F9F8FA"/>
<path d="M109.638 8.70054C109.638 8.87741 109.638 9.05428 109.638 9.31958H100.441C100.529 10.2924 100.971 11.0883 101.767 11.7073C102.475 12.3264 103.447 12.5917 104.597 12.5917C105.924 12.5917 107.073 12.1495 107.869 11.1767L109.019 12.5032C108.488 13.1223 107.869 13.5645 107.073 13.9182C106.366 14.2719 105.481 14.3604 104.509 14.3604C103.359 14.3604 102.298 14.0951 101.325 13.6529C100.441 13.1223 99.6448 12.4148 99.2026 11.5305C98.672 10.6461 98.4951 9.67332 98.4951 8.52367C98.4951 7.46245 98.7604 6.40123 99.2026 5.51688C99.7332 4.63253 100.352 3.92505 101.237 3.48287C102.121 2.95226 103.094 2.77539 104.155 2.77539C105.216 2.77539 106.189 3.0407 106.985 3.48287C107.869 4.01348 108.488 4.63253 108.93 5.51688C109.461 6.5781 109.638 7.55088 109.638 8.70054ZM104.067 4.54409C103.094 4.54409 102.298 4.8094 101.59 5.42844C100.971 6.04749 100.529 6.8434 100.441 7.81619H107.692C107.604 6.8434 107.162 6.04749 106.543 5.51688C105.924 4.89783 105.039 4.54409 104.067 4.54409Z" fill="#F9F8FA"/>
<path d="M56.3102 21.4353C57.7252 21.4353 58.8748 21.8775 59.6707 22.6734C60.5551 23.4693 60.9088 24.619 60.9088 26.2108V32.4013H58.8748V26.3877C58.8748 25.3265 58.6095 24.5305 58.0789 23.9999C57.5483 23.4693 56.8408 23.204 55.868 23.204C54.8068 23.204 53.9225 23.5578 53.3034 24.1768C52.6844 24.7958 52.3306 25.6802 52.3306 26.8299V32.4013H50.2966V17.1904H52.3306V23.0271C52.7728 22.4965 53.3034 22.1428 54.0109 21.7891C54.7184 21.6122 55.4259 21.4353 56.3102 21.4353Z" fill="#F9F8FA"/>
<path d="M69.5765 32.5778C68.4268 32.5778 67.454 32.3125 66.5697 31.8703C65.6853 31.4281 64.9778 30.7206 64.4472 29.9247C63.9166 29.0404 63.7397 28.156 63.7397 27.0948C63.7397 26.0336 64.0051 25.0608 64.4472 24.2649C64.9778 23.3805 65.6853 22.7615 66.5697 22.3193C67.454 21.8771 68.4268 21.6118 69.5765 21.6118C70.7261 21.6118 71.6989 21.8771 72.5833 22.3193C73.4676 22.7615 74.1751 23.469 74.6173 24.2649C75.1479 25.0608 75.4132 26.0336 75.4132 27.0948C75.4132 28.156 75.1479 29.1288 74.6173 29.9247C74.0866 30.7206 73.4676 31.4281 72.5833 31.8703C71.6989 32.3125 70.6377 32.5778 69.5765 32.5778ZM69.5765 30.8091C70.2839 30.8091 70.903 30.6322 71.522 30.3669C72.1411 30.0131 72.5833 29.571 72.8486 29.0404C73.2023 28.4213 73.2907 27.8023 73.2907 27.0064C73.2907 26.2989 73.1139 25.5914 72.8486 25.0608C72.4948 24.4417 72.0526 23.9996 71.522 23.7343C70.9914 23.3805 70.2839 23.2921 69.5765 23.2921C68.869 23.2921 68.2499 23.469 67.6309 23.7343C67.1003 24.088 66.6581 24.5302 66.3044 25.0608C65.9506 25.5914 65.8622 26.2989 65.8622 27.0064C65.8622 27.7138 66.0391 28.4213 66.3044 29.0404C66.6581 29.571 67.1003 30.1016 67.6309 30.3669C68.1615 30.6322 68.869 30.8091 69.5765 30.8091Z" fill="#F9F8FA"/>
<path d="M92.1266 21.4351C93.5416 21.4351 94.6028 21.7888 95.4871 22.5847C96.283 23.3806 96.7252 24.5303 96.7252 26.1221V32.401H94.6912V26.3874C94.6912 25.3262 94.4259 24.5303 93.8953 23.9997C93.3647 23.4691 92.6572 23.2038 91.7729 23.2038C90.7116 23.2038 89.9157 23.5575 89.2967 24.1765C88.6776 24.7956 88.4123 25.6799 88.4123 26.8296V32.401H86.3783V26.3874C86.3783 25.3262 86.113 24.5303 85.5824 23.9997C85.0518 23.4691 84.3443 23.2038 83.46 23.2038C82.3988 23.2038 81.6028 23.5575 80.9838 24.1765C80.3647 24.7956 80.0994 25.6799 80.0994 26.8296V32.401H78.0654V21.5235H80.011V23.1153C80.4532 22.5847 80.9838 22.1425 81.6028 21.8772C82.2219 21.6119 83.0178 21.4351 83.9021 21.4351C84.7865 21.4351 85.5824 21.6119 86.2015 21.9657C86.9089 22.3194 87.4395 22.7616 87.7933 23.4691C88.2355 22.85 88.7661 22.3194 89.562 21.9657C90.3579 21.6119 91.2423 21.4351 92.1266 21.4351Z" fill="#F9F8FA"/>
<path d="M109.637 27.0069C109.637 27.1838 109.637 27.3606 109.637 27.6259H100.528C100.616 28.5987 101.059 29.3946 101.855 29.9253C102.562 30.4559 103.535 30.8096 104.596 30.8096C105.923 30.8096 106.984 30.3674 107.868 29.4831L109.018 30.7212C108.487 31.2518 107.868 31.694 107.161 32.0477C106.453 32.313 105.569 32.4899 104.684 32.4899C103.535 32.4899 102.474 32.2246 101.501 31.7824C100.616 31.3402 99.909 30.6327 99.3784 29.8368C98.8478 28.9525 98.6709 28.0681 98.6709 27.0069C98.6709 25.9457 98.9362 24.9729 99.3784 24.177C99.909 23.2926 100.528 22.6736 101.412 22.2314C102.297 21.7892 103.27 21.5239 104.331 21.5239C105.392 21.5239 106.365 21.7892 107.161 22.2314C108.045 22.6736 108.664 23.3811 109.106 24.177C109.46 24.9729 109.637 25.9457 109.637 27.0069ZM104.154 23.1158C103.181 23.1158 102.385 23.3811 101.678 24.0001C101.059 24.5307 100.616 25.3266 100.528 26.211H107.691C107.603 25.3266 107.161 24.5307 106.542 24.0001C105.923 23.3811 105.127 23.1158 104.154 23.1158Z" fill="#F9F8FA"/>
<path d="M29.4227 27.2321V11.3361L15.6397 0.564453L1 11.3361V32.618H14.73" stroke="#E87F18" stroke-width="2" stroke-linecap="round" stroke-linejoin="round"/>
<path d="M13.5034 32.5947C14.2609 32.6469 14.4774 32.5947 14.9102 32.5947C17.9943 32.5947 20.6455 30.2977 20.8078 27.3221C20.916 24.1378 18.3189 21.5276 15.0725 21.5276C13.774 21.5276 12.6918 21.7886 11.772 22.4673C11.5556 22.6239 10.3653 23.5635 9.17494 23.5113C7.71407 23.4591 7.06479 22.0496 7.55175 21.0056C7.87639 20.3269 8.74209 19.7005 9.22904 19.3351C9.22904 19.3351 15.5054 15.1588 21.6735 19.7005C21.944 19.9093 22.3769 20.2225 22.7556 20.4314C23.2967 20.7968 24.7575 21.2666 25.5691 20.3269C26.4348 19.3873 25.8397 18.1344 25.1904 17.4558C25.1904 17.4558 15.2889 8.05924 4.84644 17.8212" stroke="#E87F18" stroke-width="2" stroke-linecap="round" stroke-linejoin="round"/>
<path d="M14.7831 28.1306C16.0488 28.1306 17.0268 27.243 17.0268 26.2074C17.0268 25.1225 15.9912 24.2842 14.7831 24.2842C13.5173 24.2842 12.5393 25.1718 12.5393 26.2074C12.5393 27.243 13.5749 28.1306 14.7831 28.1306Z" fill="#E87F18"/>
</g>
</g>
<defs>
<filter id="filter0_d" x="-4" y="-2" width="117.638" height="43.618" filterUnits="userSpaceOnUse" color-interpolation-filters="sRGB">
<feFlood flood-opacity="0" result="BackgroundImageFix"/>
<feColorMatrix in="SourceAlpha" type="matrix" values="0 0 0 0 0 0 0 0 0 0 0 0 0 0 0 0 0 0 127 0"/>
<feOffset dy="4"/>
<feGaussianBlur stdDeviation="2"/>
<feColorMatrix type="matrix" values="0 0 0 0 0 0 0 0 0 0 0 0 0 0 0 0 0 0 0.25 0"/>
<feBlend mode="normal" in2="BackgroundImageFix" result="effect1_dropShadow"/>
<feBlend mode="normal" in="SourceGraphic" in2="effect1_dropShadow" result="shape"/>
</filter>
<clipPath id="clip0">
<rect width="118" height="36" fill="white" transform="translate(0 -2)"/>
</clipPath>
</defs>
</svg>
